<svg xmlns="http://www.w3.org/2000/svg" version="1.1" xmlns:xlink="http://www.w3.org/1999/xlink" xmlns:svgjs="http://svgjs.dev/svgjs" width="100%" height="100%" viewBox="0 0 1000 600"><rect width="1000" height="600" x="0" y="0" fill="#2b3252"/><g><circle r="166.66666666666666" cx="363.6812082926432" cy="385.9033909429461" fill="#fad744" transform="matrix(0.6344710742512976,0,0,0.6344710742512975,0,55.155459526955)"/><path d="M309.94699780753666 460.90339756538333L309.94699780753666 460.90339756538333L311.55196238301795 450.2464327841876Q321.7274377915693 448.41677316813895 324.9694662340415 444.8216525190609Q328.17939538500406 441.2586311614924 328.17939538500406 431.30785079350846L328.17939538500406 431.30785079350846L328.43618971708105 334.23959326840026Q328.43618971708105 326.85675622118634 326.7028279755613 324.2888129004163Q324.9694662340415 321.7529688711559 319.865678884011 321.7529688711559L319.865678884011 321.7529688711559Q317.77922493588534 321.7529688711559 314.890288700019 321.9776639117232Q312.0013524641527 322.23445824380025 312.0013524641527 322.23445824380025L312.0013524641527 322.23445824380025L311.55196238301795 321.3035787900211L313.15692695849924 311.1281033814697Q313.15692695849924 311.1281033814697 317.77922493588534 311.35279842203715Q322.40152291327144 311.5774934626045 328.43618971708105 311.70589062864303Q334.4387572293811 311.8342877946815 338.83636016619977 311.8342877946815L338.83636016619977 311.8342877946815Q341.1475091548928 311.8342877946815 345.8661050068078 311.70589062864303Q350.61680015023245 311.5774934626045 355.6884882087533 311.35279842203715Q360.7922755587838 311.1281033814697 364.35529691635224 310.9997062154313Q367.9504175654303 310.9034083409024 367.9504175654303 310.9034083409024L367.9504175654303 310.9034083409024Q379.9555525900303 310.9034083409024 389.10385067027363 313.5676495362013Q398.2200494590074 316.1997914399906 404.5757091779133 321.52827383058843Q410.93136889681915 326.85675622118634 414.1733973392914 334.46428830896764Q417.41542578176353 342.10391968825854 417.41542578176353 352.0226007647329L417.41542578176353 352.0226007647329Q417.41542578176353 361.9733811327169 413.0178228449449 370.9932820469217Q408.6202199081261 380.0131829611265 401.2373828609122 387.1713249677731Q393.8224465221886 394.32946697441963 384.3531555268491 398.50237487067096Q374.88386453150946 402.6431834754127 364.48369408239074 402.6431834754127L364.48369408239074 402.6431834754127L345.06362271906715 402.6431834754127L344.6142326379324 425.3052832812084Q344.6142326379324 435.7054537303272 345.2883177596346 440.77714178884804Q345.99450217284635 445.8809291388785 348.17725399550085 447.3574965483213Q350.39210510966507 448.8661632492737 354.75760875497417 448.8661632492737L354.75760875497417 448.8661632492737Q358.22433223801374 448.8661632492737 362.75033234087095 448.51307104266783Q367.24423315221856 448.19207812757156 367.24423315221856 448.19207812757156L367.24423315221856 448.19207812757156L367.725722524863 449.0908582898411L365.63926857673727 459.7478230710368Q365.63926857673727 459.7478230710368 363.4244174625731 459.61942590499837Q361.24166563991855 459.4910287389598 357.9033393229175 459.3947308644309Q354.5329137144068 459.2663336983925 350.96989235683833 459.1700358238636Q347.3747717077602 459.04163865782505 344.3574383058554 459.04163865782505L344.3574383058554 459.04163865782505Q339.7351403284693 459.04163865782505 333.8609699822078 459.2663336983925Q327.95470034443673 459.4910287389598 322.6583172453484 459.7478230710368Q317.3298348547506 459.97251811160424 313.7347142056725 460.3256103182101Q310.17169284810404 460.64660323330634 309.94699780753666 460.90339756538333ZM345.5130128002019 389.0009845838217L370.03687151355604 392.46770806686135Q397.99535441844 387.8454100894752 397.99535441844 356.42020370155166L397.99535441844 356.42020370155166Q397.99535441844 338.63719620521897 387.5951839693212 330.4197775787548Q377.1950135202025 322.23445824380025 354.5329137144068 322.23445824380025L354.5329137144068 322.23445824380025Q350.39210510966507 322.23445824380025 349.4612256558859 322.5554511588965Q348.5303462021067 322.9085433655024 348.3056511615394 325.4443873947628L348.3056511615394 325.4443873947628Q347.3747717077602 340.948345193912 346.66858729454844 357.4794803213693Q345.99450217284635 373.9785161573169 345.5130128002019 389.0009845838217L345.5130128002019 389.0009845838217Z " fill="#2b3252" transform="matrix(0.6344710742512976,0,0,0.6344710742512975,0,55.155459526955)"/><path d="M613.6812125831431 453.9491533881139L613.6812125831431 453.9491533881139L615.1930045419673 443.9108547815203Q624.7777655609136 442.1874119484605 627.8315853177388 438.8009979606941Q630.8551692353875 435.444819812104 630.8551692353875 426.0717096673931L630.8551692353875 426.0717096673931L631.0970559487994 334.6385319976971Q631.0970559487994 327.6842889871052 629.464320633269 325.26542185298626Q627.8315853177388 322.8767905580438 623.0240868886774 322.8767905580438L623.0240868886774 322.8767905580438Q621.0587573422057 322.8767905580438 618.337531816322 323.0884414322792Q615.6163062904382 323.3303281456911 615.6163062904382 323.3303281456911L615.6163062904382 323.3303281456911L615.1930045419673 322.453488809573L616.7047965007918 312.8687277906267Q616.7047965007918 312.8687277906267 621.0587573422057 313.0803786648621Q625.4127181836199 313.2920295390975 631.0970559487994 313.4129728958035Q636.7511578748024 313.53391625250936 640.8934678419811 313.53391625250936L640.8934678419811 313.53391625250936Q643.0704482626882 313.53391625250936 647.5151166216317 313.4129728958035Q651.9900208197517 313.2920295390975 656.7672834096367 313.0803786648621Q661.574781838698 312.8687277906267 664.930959987288 312.74778443392074Q668.3173739750546 312.65707691639125 668.3173739750546 312.65707691639125L668.3173739750546 312.65707691639125Q679.6255778270606 312.65707691639125 688.2427919923593 315.1666515680397Q696.8297703184816 317.6459903805116 702.816466475426 322.6651396838084Q708.8031626323703 327.6842889871052 711.8569823891955 334.85018287193253Q714.9108021460207 342.0463125959364 714.9108021460207 351.3891869014708L714.9108021460207 351.3891869014708Q714.9108021460207 360.76229704618174 710.7684921788419 369.25856785477447Q706.6261822116634 377.75483866336725 699.6719392010714 384.4974307997238Q692.6874603513029 391.2400229360804 683.7678877942393 395.1706820290236Q674.8483152371757 399.0711052827904 665.051903343994 399.0711052827904L665.051903343994 399.0711052827904L646.7592206422195 399.0711052827904L646.3359188937487 420.4176077413901Q646.3359188937487 430.21401963457186 646.9708715164548 434.9912822244567Q647.6360599783376 439.7987806535181 649.6920970423388 441.18962925563653Q651.7783699455164 442.6107136969314 655.8904440735186 442.6107136969314L655.8904440735186 442.6107136969314Q659.155914704579 442.6107136969314 663.4191680284638 442.27811946599Q667.6521855131718 441.97576107422515 667.6521855131718 441.97576107422515L667.6521855131718 441.97576107422515L668.1057231008191 442.82236457116676L666.1403935543475 452.8606631777604Q666.1403935543475 452.8606631777604 664.0541206511699 452.73971982105445Q661.9980835871688 452.61877646434846 658.8535563128142 452.5280689468191Q655.6787931992832 452.4071255901131 652.3226150506931 452.3164180725836Q648.9362010629266 452.1954747158777 646.0940321803367 452.1954747158777L646.0940321803367 452.1954747158777Q641.7400713389227 452.1954747158777 636.2069127696257 452.4071255901131Q630.6435183611521 452.61877646434846 625.6546048970317 452.8606631777604Q620.635455593735 453.0723140519958 617.2490416059685 453.4049082829372Q613.8928634573784 453.70726667470205 613.6812125831431 453.9491533881139ZM647.1825223906903 386.22087363278354L670.2827035215263 389.48634426384416Q696.6181194442462 385.13238342243005 696.6181194442462 355.53149686864947L696.6181194442462 355.53149686864947Q696.6181194442462 338.78084196487583 686.8217075510645 331.0404671356952Q677.0252956578828 323.3303281456911 655.6787931992832 323.3303281456911L655.6787931992832 323.3303281456911Q651.7783699455164 323.3303281456911 650.9015306093983 323.6326865374559Q650.0246912732802 323.9652807683973 649.8130403990447 326.35391206333975L649.8130403990447 326.35391206333975Q648.9362010629266 340.95782238558286 648.2710126010439 356.5292795614736Q647.6360599783376 372.0705008981878 647.1825223906903 386.22087363278354L647.1825223906903 386.22087363278354ZM786.7511560293532 454.37245513658473L786.7511560293532 454.37245513658473L786.0859675674706 452.8606631777604L786.9628069035887 444.3643923691676Q794.5822383760633 443.69920390728487 798.724548343242 442.82236457116676Q802.8366224712441 441.97576107422515 804.5903011434805 440.34302575869486Q806.3439798157167 438.7102904431646 806.3439798157167 436.07977243481025L806.3439798157167 436.07977243481025Q806.3439798157167 433.90279201410317 805.8904422280693 431.30250984492534Q805.4671404795986 428.671991836571 804.378650269245 425.6484079189223L804.378650269245 425.6484079189223L797.1825205452412 401.9132741653802Q793.2820972914743 401.70162329114476 786.2069109241764 401.70162329114476Q779.1317245568786 401.70162329114476 774.5358770020526 401.70162329114476L774.5358770020526 401.70162329114476Q768.2468224533433 401.70162329114476 761.3832869602809 402.336575913851Q754.5197514672184 403.0017643757337 750.830979087687 403.42506612420453L750.830979087687 403.42506612420453L742.758010027565 426.0717096673931Q740.7926804810934 431.9374624676316 740.7926804810934 434.5679804759859L740.7926804810934 434.5679804759859Q740.7926804810934 439.3452430658708 743.9674435946245 441.4315159690484Q747.111970868979 443.4875530330495 753.8545630053356 443.4875530330495L753.8545630053356 443.4875530330495L766.2814929068717 443.4875530330495L766.7047946553425 444.3643923691676L765.4046535707536 453.70726667470205Q765.4046535707536 453.70726667470205 760.839041855104 453.2839649262312Q756.2734301394546 452.8606631777604 749.2889512896861 452.5280689468191Q742.3347082790941 452.1954747158777 735.1385785550904 452.1954747158777L735.1385785550904 452.1954747158777Q729.9077783775581 452.1954747158777 724.3746198082611 452.3164180725836Q718.8112253997875 452.4071255901131 715.0015096635501 452.61877646434846Q711.1917939273128 452.8606631777604 711.1917939273128 452.8606631777604L711.1917939273128 452.8606631777604L712.945472599549 442.6107136969314Q719.0228762740229 441.97576107422515 722.7418844927307 438.4684037297527Q726.4306568722621 434.9912822244567 729.9077783775581 425.8600587931577L729.9077783775581 425.8600587931577L772.3588965813456 314.6224064628629L786.0859675674706 310.903398244155L787.8396462397068 310.903398244155Q787.8396462397068 310.903398244155 789.2304948418251 316.0132550649813Q790.65157928312 321.15334772498403 793.1611539347684 330.1636277995771Q795.6707285864169 339.20414371334664 799.026906735007 350.84494179629405Q802.4133207227734 362.51597571841796 806.2230364590107 375.5778582426602Q810.032752195248 388.6397407669025 814.1750621624267 402.0039816829096Q818.3173721296054 415.39845843809326 822.4294462576075 427.58350162621747L822.4294462576075 427.58350162621747Q825.059964265962 435.6564706863394 829.5046326249055 438.92194131739996Q833.9795368230256 442.1874119484605 843.3526469677364 443.06425128457863L843.3526469677364 443.06425128457863L843.7759487162073 443.9108547815203L842.2641567573829 452.8606631777604Q842.2641567573829 452.8606631777604 838.0009034334984 452.61877646434846Q833.7678859487902 452.4071255901131 828.3254348970225 452.3164180725836Q822.8829838452549 452.1954747158777 819.1639756265471 452.1954747158777L819.1639756265471 452.1954747158777Q810.9095915313661 452.1954747158777 803.380867576421 452.73971982105445Q795.8823794606523 453.2839649262312 791.3167677450027 453.82821003140793Q786.7511560293532 454.37245513658473 786.7511560293532 454.37245513658473ZM775.4127163381708 334.6385319976971L754.7314023414538 392.7518148949047L773.9009243793463 392.7518148949047Q778.2548852207605 392.7518148949047 784.3322888952342 392.3285131464339Q790.4399284088846 391.90521139796306 794.128700788416 391.6633246845512L794.128700788416 391.6633246845512L776.9547441361715 334.6385319976971L775.4127163381708 334.6385319976971ZM910.5971532962429 454.79575688505554L910.5971532962429 454.79575688505554Q910.5971532962429 454.79575688505554 907.3316826651825 454.37245513658473Q904.0662120341218 453.9491533881139 899.0772985700015 453.4956158004666Q894.0581492667048 453.0723140519958 888.7366415716432 452.61877646434846Q883.3848980374049 452.1954747158777 879.2728239094027 452.1954747158777L879.2728239094027 452.1954747158777Q873.8303728576351 452.1954747158777 868.0553275749262 452.8606631777604Q862.2802822922172 453.4956158004666 858.2589156817445 454.1608042623493Q854.2375490712717 454.79575688505554 854.2375490712717 454.79575688505554L854.2375490712717 454.79575688505554L855.5376901558606 444.78769411763847Q865.7574037975131 442.82236457116676 869.1438177852797 439.01264883492945Q872.4999959338696 435.20293309869214 872.4999959338696 426.0717096673931L872.4999959338696 426.0717096673931L872.7418826472816 334.6385319976971Q872.7418826472816 327.6842889871052 871.1998548492808 325.26542185298626Q869.6880628904564 322.8767905580438 864.6689135871596 322.8767905580438L864.6689135871596 322.8767905580438Q862.703584040688 322.8767905580438 859.9823585148042 323.0884414322792Q857.2611329889204 323.3303281456911 857.2611329889204 323.3303281456911L857.2611329889204 323.3303281456911L856.8378312404495 322.453488809573L858.3496231992739 312.8687277906267Q858.3496231992739 312.8687277906267 860.7684903333928 312.9896711473326Q863.1571216283353 313.0803786648621 866.7551864903372 313.20132202156805Q870.3230155131627 313.2920295390975 874.253674606106 313.4129728958035Q878.1843336990493 313.53391625250936 881.207917616698 313.53391625250936L881.207917616698 313.53391625250936Q884.9269258354058 313.53391625250936 890.4600844047028 313.4129728958035Q896.0234788131764 313.2920295390975 901.4659298649441 313.0803786648621Q906.9083809167116 312.8687277906267 910.5971532962429 312.74778443392074Q914.316161514951 312.65707691639125 914.316161514951 312.65707691639125L914.316161514951 312.65707691639125Q935.632428134374 312.65707691639125 951.7481304154416 320.8207534940427Q967.8638326965089 328.98443007169413 976.9043486102786 343.6790479114667Q985.9448645240481 358.3736657512393 985.9448645240481 377.75483866336725L985.9448645240481 377.75483866336725Q985.9448645240481 394.08219181867014 980.169819241339 407.990677839854Q974.3947739586301 421.92939970021445 964.0541169602716 432.4817075728083Q953.7134599619131 443.06425128457863 940.1073323324941 448.93000408481714Q926.5012047030751 454.79575688505554 910.5971532962429 454.79575688505554ZM899.2889494442369 323.3303281456911L899.2889494442369 323.3303281456911Q894.7233377285875 323.3303281456911 893.1813099305867 324.1769316426327Q891.6695179717623 325.05377097875083 891.4578670975269 328.10759073557597L891.4578670975269 328.10759073557597Q889.915839299526 365.78144634947853 889.0692358025844 391.02837206184495Q888.1923964664663 416.2752977742114 888.1923964664663 423.68307837245067L888.1923964664663 423.68307837245067Q888.1923964664663 431.5141607191607 890.4600844047028 435.8681215605748Q892.7580081821158 440.2220824019889 898.7447043390601 441.97576107422515Q904.7314004960045 443.69920390728487 915.6163025995398 443.69920390728487L915.6163025995398 443.69920390728487Q939.1397854788465 443.69920390728487 952.6249697515597 427.49279410868803Q966.1101540242727 411.2561484709146 966.1101540242727 382.95540300172297L966.1101540242727 382.95540300172297Q966.1101540242727 363.8161168030069 958.4000150342686 350.5425834045292Q950.6596402050881 337.238814166875 935.75337149108 330.28457115628305Q920.847102777072 323.3303281456911 899.2889494442369 323.3303281456911ZM1125.0297247358872 457.84957664188073L1118.7406701871778 460.90339639870587Q1102.8366187803458 436.07977243481025 1088.2629442972793 414.3099682277398Q1073.659033975036 392.5401640206693 1062.35083012303 376.12210334783697Q1051.0123904318475 359.6738068358282 1044.390741652197 350.3006966911173Q1037.7388570333696 340.95782238558286 1037.7388570333696 340.95782238558286L1037.7388570333696 340.95782238558286L1036.6503668230166 340.95782238558286L1035.5618766126627 433.90279201410317Q1035.5618766126627 438.7102904431646 1037.1039044106637 440.64538415045973Q1038.615696369488 442.6107136969314 1042.3044687490196 442.6107136969314L1042.3044687490196 442.6107136969314Q1043.3929589593731 442.6107136969314 1046.1141844852568 442.5200061794019Q1048.8354100111405 442.399062822696 1051.1333337885535 442.399062822696Q1053.4312575659665 442.399062822696 1053.4312575659665 442.399062822696L1053.4312575659665 442.399062822696L1053.8545593144372 443.2759021588141L1051.8892297679658 453.0723140519958Q1051.8892297679658 453.0723140519958 1049.6215418297293 452.9513706952898Q1047.3236180523163 452.8606631777604 1043.8464965470203 452.61877646434846Q1040.3693750417242 452.4071255901131 1036.317772592075 452.3164180725836Q1032.2964059816022 452.1954747158777 1028.8192844763062 452.1954747158777L1028.8192844763062 452.1954747158777Q1024.4653236348922 452.1954747158777 1019.7787685625367 452.61877646434846Q1015.0922134901813 453.0723140519958 1011.8267428591207 453.4956158004666Q1008.5612722280601 453.9491533881139 1008.5612722280601 453.9491533881139L1008.5612722280601 453.9491533881139L1009.6497624384136 443.9108547815203Q1016.4225904139468 443.06425128457863 1019.6880610450072 440.01043152775355Q1022.9535316760679 436.95661177092836 1023.1651825503033 430.21401963457186L1023.1651825503033 430.21401963457186L1025.9771155937165 335.06183374616796Q1025.9771155937165 328.31924160981146 1021.9557489832438 325.50730856639814Q1017.934382372771 322.6651396838084 1007.0494802692358 321.57664947345484L1007.0494802692358 321.57664947345484L1006.384291807353 320.48815926310135L1008.1379704795894 312.4454260421559Q1008.1379704795894 312.4454260421559 1011.5243844673558 312.65707691639125Q1014.8805626159459 312.8687277906267 1019.355466814066 313.20132202156805Q1023.8001351730095 313.53391625250936 1026.8539549298348 313.53391625250936L1026.8539549298348 313.53391625250936Q1030.5729631485424 313.53391625250936 1033.8384337796033 313.2920295390975Q1037.1039044106637 313.0803786648621 1039.2808848313707 312.8687277906267Q1041.4578652520777 312.65707691639125 1041.4578652520777 312.65707691639125L1041.4578652520777 312.65707691639125Q1052.342767355613 329.40773182016494 1062.8950752282071 345.31178322699697Q1073.4473831008008 361.18559879465255 1082.8204932455114 374.9126697807775Q1092.1633675510461 388.6397407669025 1099.3594972750498 398.85945440855505Q1106.525391159877 409.07916805020756 1110.5769936095267 414.8542133329165Q1114.5983602199994 420.62925861562553 1114.5983602199994 420.62925861562553L1114.5983602199994 420.62925861562553L1115.686850430353 420.62925861562553L1115.686850430353 332.46155157699013Q1115.686850430353 327.6842889871052 1113.9331717581167 325.3863652096922Q1112.2097289250569 323.0884414322792 1108.4907207063488 323.0884414322792L1108.4907207063488 323.0884414322792Q1105.6787876629355 323.0884414322792 1102.9575621370518 323.2093847889852Q1100.236336611168 323.3303281456911 1100.236336611168 323.3303281456911L1100.236336611168 323.3303281456911L1099.782799023521 322.453488809573L1101.7481285699923 312.65707691639125Q1101.7481285699923 312.65707691639125 1103.9251089906993 312.74778443392074Q1106.1020894114063 312.8687277906267 1109.3675600424672 313.0803786648621Q1112.6330306735276 313.2920295390975 1116.1101521788237 313.4129728958035Q1119.5872736841197 313.53391625250936 1122.4294425667094 313.53391625250936L1122.4294425667094 313.53391625250936Q1126.995054282359 313.53391625250936 1132.0142035856557 313.0803786648621Q1137.003117049776 312.65707691639125 1140.5104743942484 312.203539328744Q1143.9875958995444 311.78023758027314 1143.9875958995444 311.78023758027314L1143.9875958995444 311.78023758027314L1142.899105689191 321.78830034769027Q1135.4913250909517 322.6651396838084 1131.8932602289497 325.930610314869Q1128.2951953669476 329.19608094592957 1128.0835444927125 335.51537133381527L1128.0835444927125 335.51537133381527L1125.0297247358872 457.84957664188073ZM1163.7920705601432 454.79575688505554L1163.7920705601432 454.79575688505554L1165.0922116447323 444.78769411763847Q1175.3421611255612 442.82236457116676 1178.6983392741513 439.01264883492945Q1182.0847532619177 435.20293309869214 1182.0847532619177 426.0717096673931L1182.0847532619177 426.0717096673931L1182.2964041361533 334.6385319976971Q1182.2964041361533 327.6842889871052 1180.7846121773287 325.26542185298626Q1179.242584379328 322.8767905580438 1174.2536709152077 322.8767905580438L1174.2536709152077 322.8767905580438Q1172.288341368736 322.8767905580438 1169.5671158428522 323.0884414322792Q1166.8458903169685 323.3303281456911 1166.8458903169685 323.3303281456911L1166.8458903169685 323.3303281456911L1166.3923527293214 322.453488809573L1167.934380527322 312.8687277906267Q1167.934380527322 312.8687277906267 1170.7463135707353 312.9896711473326Q1173.588482453325 313.0803786648621 1178.1540941689746 313.20132202156805Q1182.719705884624 313.2920295390975 1188.071449418862 313.4129728958035Q1193.3929571139238 313.53391625250936 1198.2004555429853 313.53391625250936L1198.2004555429853 313.53391625250936Q1213.1974317745226 313.53391625250936 1224.3242205914698 313.2920295390975Q1235.4207735692403 313.0803786648621 1244.0077518953626 312.4454260421559Q1252.6249660606613 311.78023758027314 1259.3675581970178 310.903398244155L1259.3675581970178 310.903398244155L1260.0025108197242 312.203539328744Q1260.0025108197242 312.203539328744 1259.0349639660762 317.2226886320408Q1258.0674171124288 322.24183793533757 1256.8579835453693 330.6171653872244Q1255.6485499783098 338.99249283911126 1255.0135973556035 349.00055560652834L1255.0135973556035 349.00055560652834L1244.5519970005394 349.87739494264645Q1244.5519970005394 349.87739494264645 1244.7636478747745 345.9467358497032Q1245.0055345881865 342.0463125959364 1245.0055345881865 339.8693321752294L1245.0055345881865 339.8693321752294Q1245.0055345881865 332.6732024512255 1243.2518559159503 329.40773182016494Q1241.498177243714 326.1422611891044 1235.2998302125343 325.26542185298626Q1229.1014831813545 324.41881835604465 1215.827949782877 324.41881835604465L1215.827949782877 324.41881835604465Q1208.8434709331086 324.41881835604465 1205.5780003020482 324.84212010451546Q1202.3125296709873 325.26542185298626 1201.5566336915754 327.0191005252225Q1200.800737712163 328.7727791974587 1200.5890868379279 332.8848533254609L1200.5890868379279 332.8848533254609L1198.8354081656912 378.8433288737208L1221.2704008346445 379.05497974795617Q1224.7475223399406 379.05497974795617 1230.069030035002 378.3897912860735Q1235.4207735692403 377.75483866336725 1239.7747344106547 377.2105935581905Q1244.1286952520686 376.66634845301377 1244.1286952520686 376.66634845301377L1244.1286952520686 376.66634845301377L1245.0055345881865 377.75483866336725L1241.9517148313616 390.8167211876096Q1241.9517148313616 390.8167211876096 1237.3861031157116 390.57483447419764Q1232.7902555608857 390.36318359996227 1226.591908529706 390.2724760824328Q1220.3935614985262 390.15153272572684 1215.1627613209944 390.15153272572684L1215.1627613209944 390.15153272572684Q1210.3854987311092 390.15153272572684 1205.8198870154597 390.6957778309036Q1201.2240394606338 391.2400229360804 1198.4121064172205 391.6633246845512L1198.4121064172205 391.6633246845512L1197.5352670811026 427.82538833962934Q1197.5352670811026 436.53331002245756 1199.500596627574 439.5568939401062Q1201.4659261740458 442.6107136969314 1207.1200281000488 442.6107136969314L1207.1200281000488 442.6107136969314Q1209.2970085207558 442.6107136969314 1212.9857809002874 442.399062822696Q1216.704789118995 442.1874119484605 1219.6376655191143 442.06646859175464Q1222.5705419192332 441.97576107422515 1222.5705419192332 441.97576107422515L1222.5705419192332 441.97576107422515L1222.9938436677044 442.82236457116676L1221.058749960409 453.0723140519958Q1221.058749960409 453.0723140519958 1217.6723359726425 452.9513706952898Q1214.285921984876 452.8606631777604 1209.1760651640498 452.61877646434846Q1204.0662083432235 452.4071255901131 1198.50281393475 452.3164180725836Q1192.969655365453 452.1954747158777 1188.615694524039 452.1954747158777L1188.615694524039 452.1954747158777Q1183.1732434722712 452.1954747158777 1177.3981981895622 452.8606631777604Q1171.6231529068532 453.4956158004666 1167.7227296530864 454.1608042623493Q1163.7920705601432 454.79575688505554 1163.7920705601432 454.79575688505554ZM1289.8452840869163 453.0723140519958L1289.8452840869163 453.0723140519958L1291.5687269199761 443.69920390728487Q1301.818676400805 442.82236457116676 1306.3842881164546 440.9779783814011Q1310.9498998321042 439.1335921916354 1312.1593333991636 433.81208449657373Q1313.3385311270467 428.4603409623356 1313.3385311270467 416.9404862360941L1313.3385311270467 416.9404862360941L1313.3385311270467 321.9999512219257Q1300.7301861904516 322.453488809573 1293.4433489489184 323.2093847889852Q1286.1262758682087 323.9652807683973 1282.6491543629127 326.47485542004574Q1279.1720328576166 328.98443007169413 1277.6602408987924 334.4268811234617Q1276.1182131007913 339.8693321752294 1274.8180720162027 349.4540931941757L1274.8180720162027 349.4540931941757L1264.5983583745501 350.3006966911173Q1265.4449618714916 344.01164214240805 1266.1101503333743 337.238814166875Q1266.775338795257 330.4962220305184 1267.1986405437278 324.0862241251033Q1267.6219422921986 317.6459903805116 1267.8638290056106 312.65707691639125L1267.8638290056106 312.65707691639125L1269.7989227129056 310.903398244155L1287.879954540445 313.2920295390975L1355.3663475823632 313.2920295390975L1373.8706811583734 310.903398244155L1375.8360107048447 312.65707691639125Q1376.0476615790803 317.6459903805116 1376.470963327551 324.0862241251033Q1376.9245009151982 330.4962220305184 1377.6803968946106 337.02716329263956Q1378.436292874023 343.55810455476075 1379.1014813359052 349.4540931941757L1379.1014813359052 349.4540931941757L1368.8515318550762 350.3006966911173Q1367.339739896252 340.5042847979356 1365.7070045807218 334.97112622863847Q1364.0742692651916 329.40773182016494 1360.6878552774251 326.89815716851655Q1357.331677128835 324.41881835604465 1350.589084992478 323.54197901992654Q1343.8162570169452 322.6651396838084 1332.0847514164684 321.9999512219257L1332.0847514164684 321.9999512219257Q1331.4195629545857 328.53089248404683 1330.754374492703 340.7461715113475Q1330.119421869997 352.93121469947164 1329.6658842823495 368.04913428771505Q1329.2425825338787 383.1972897151349 1328.9099883029376 398.85945440855505Q1328.577394071996 414.52161910197515 1328.577394071996 427.82538833962934L1328.577394071996 427.82538833962934Q1328.577394071996 435.8681215605748 1331.4195629545857 439.2545355483413Q1334.2617318371754 442.6107136969314 1341.0043239735323 442.6107136969314L1341.0043239735323 442.6107136969314Q1347.5352652356532 442.6107136969314 1352.9777162874207 441.97576107422515L1352.9777162874207 441.97576107422515L1353.612668910127 442.82236457116676L1351.677575202832 452.8606631777604Q1347.081727648006 452.61877646434846 1341.0043239735323 452.5280689468191Q1334.8966844598817 452.4071255901131 1329.1216391771727 452.3164180725836Q1323.37682973364 452.1954747158777 1319.6578215149325 452.1954747158777L1319.6578215149325 452.1954747158777Q1316.1807000096364 452.1954747158777 1310.859192314575 452.3164180725836Q1305.5074487803367 452.4071255901131 1299.9742902110397 452.61877646434846Q1294.4108958025658 452.8606631777604 1289.8452840869163 453.0723140519958Z " fill="#fad744" transform="matrix(0.6344710742512976,0,0,0.6344710742512975,0,55.155459526955)"/></g></svg>